<?xml version="1.0" encoding="UTF-8" standalone="no"?>
<svg style="image-rendering:optimizeQuality;text-rendering:geometricPrecision;shape-rendering:geometricPrecision" xmlns="http://www.w3.org/2000/svg" fill-rule="evenodd" xml:space="preserve" height="360" width="340" version="1.1" clip-rule="evenodd" viewBox="0 0 13.615292 14.41612"><defs><style type="text/css"><![CDATA[
    .fil4 {fill:#DEDEDD}
    .fil0 {fill:#F8C300}
    .fil3 {fill:white}
    .fil5 {fill:#293554}
    .fil1 {fill:#3D9BCA}
    .fil2 {fill:#47C7FF}
    .fil7 {fill:#F8C300;fill-rule:nonzero}
    .fil6 {fill:white;fill-rule:nonzero}
   ]]></style></defs><g transform="matrix(1.465 0 0 1.465 .000001319 -.00002723)"><path fill="#f8c300" class="fil0" d="m1.928 0.09904c1.811 1.134 3.469 2.19 5.279 3.324 0.1295 0.08109 0.1979 0.1527 0.179 0.2269 0.01886 0.07425-0.04948 0.1458-0.179 0.2269-1.811 1.134-3.469 2.19-5.279 3.324-0.1957 0.1225-0.2746 0.1712-0.2746-0.09272v-6.916c0-0.2639 0.07894-0.2153 0.2746-0.09272z"/><path d="m1.611 2.438c0.6913 0 1.252 0.5606 1.252 1.252 0 0.5631-0.3719 1.039-0.8834 1.197h-0.738c-0.5114-0.158-0.8833-0.634-0.8833-1.197 0-0.6913 0.5606-1.252 1.252-1.252z" fill="#3d9bca" class="fil1"/><path d="m1.242 4.887c-0.5113-0.158-0.8833-0.634-0.8833-1.197 0-0.6588 0.5091-1.199 1.155-1.248 0.4503 0.2346 0.7578 0.7056 0.7578 1.248 0 0.03687-0.00147 0.0734-0.00425 0.1096l-1.41-0.021 0.0251 0.01 1.183 0.251c0.06849 0.01452 0.1537 0.04236 0.1233 0.1268-0.1084 0.3008-0.3165 0.5539-0.5844 0.7198h-0.3622z" fill="#47c7ff" class="fil2"/><path fill="#fff" class="fil3" d="m1.242 4.887h-0.241c-0.05305 0-0.09646 0.03578-0.09646 0.07949v0.2208c0 0.04371 0.04341 0.07949 0.09646 0.07949h1.222c0.05303 0 0.09647-0.03578 0.09647-0.07949v-0.221c0-0.0437-0.04341-0.07949-0.09647-0.07949h-0.981z"/><path fill="#fff" class="fil3" d="m2.096 5.379h-0.977l0.1905 2.793c0.00242 0.03573 0.02933 0.06516 0.06516 0.06516h0.4654c0.0358 0 0.0627-0.02942 0.06514-0.06516z"/><path fill="#dededd" class="fil4" d="m2.192 4.966v0.2208c0 0.04371-0.04342 0.07949-0.09647 0.07949h0.1281c0.05303 0 0.09647-0.03578 0.09647-0.07949v-0.221c0-0.0437-0.04341-0.07949-0.09647-0.07949h-0.129c0.05306 0 0.09647 0.0358 0.09647 0.07949z"/><path fill="#dededd" class="fil4" d="m1.67 5.379-0.009 2.793c0 0.036-0.029 0.065-0.065 0.065h0.244c0.0358 0 0.0627-0.02942 0.06514-0.06516l0.1905-2.793z"/><path fill="#293554" class="fil5" d="m0.9536 3.136c-0.01856 0.01856-0.04866 0.01856-0.06722 0-0.01854-0.01856-0.01854-0.04866 0-0.06722 0.0926-0.093 0.2016-0.166 0.3216-0.215 0.119-0.049 0.248-0.076 0.378-0.076 0.02624 0 0.04752 0.02126 0.04752 0.04752 0 0.02624-0.02128 0.04751-0.04752 0.04751-0.118 0-0.235 0.024-0.342 0.068-0.107 0.045-0.206 0.111-0.2904 0.195zm0.03089 1.639h1.252c0.3434-0.1988 0.5837-0.556 0.6208-0.9717h-2.494c0.03705 0.4157 0.2773 0.7729 0.6208 0.9717zm-0.3788-1.141c0.0057-0.041 0.0139-0.082 0.0246-0.122 0.0222-0.083 0.0554-0.163 0.0989-0.238 0.013-0.023 0.0419-0.031 0.0646-0.018 0.0226 0.013 0.0305 0.042 0.0174 0.065-0.039 0.068-0.069 0.14-0.0892 0.216-0.0086 0.032-0.0153 0.064-0.0203 0.097h2.16c-0.02944-0.6652-0.5782-1.196-1.251-1.196-0.6725 0-1.221 0.5305-1.251 1.196zm0.395 1.253h1.222c0.05306 0 0.09646 0.03579 0.09646 0.0795v0.2208c0 0.04371-0.04341 0.07949-0.09646 0.07949h-1.222c-0.05303 0-0.09646-0.03576-0.09646-0.07949v-0.221c0-0.04372 0.04341-0.0795 0.09646-0.0795zm1.465-0.07999c0.0258 0.02322 0.04209 0.05683 0.04209 0.09405v0.351c0 0.06964-0.05697 0.1266-0.1266 0.1266h-0.03642l-0.2871 2.94c-0.00527 0.05391-0.04433 0.09847-0.09847 0.09847h-0.7034c-0.05414 0-0.0932-0.04456-0.09847-0.09847l-0.2871-2.94h-0.008279c-0.06964 0-0.1266-0.05697-0.1266-0.1266v-0.351c0-0.03243 0.01237-0.06211 0.0326-0.08458-0.3158-0.235-0.5283-0.599-0.5611-1.014h-0.1241c-0.04643 0-0.0844-0.038-0.0844-0.084 0-0.04642 0.03797-0.08439 0.08439-0.08439h0.1208c0.02956-0.7507 0.6476-1.35 1.405-1.35 0.7579 0 1.376 0.5998 1.405 1.35h0.1208c0.04642 0 0.08439 0.03797 0.08439 0.08439s-0.03797 0.08441-0.08439 0.08441h-0.1241c-0.03237 0.4089-0.2397 0.7685-0.5471 1.004zm-0.3698 0.5723h-0.9767l0.1905 2.793c0.00242 0.03575 0.02935 0.06516 0.06516 0.06516h0.4654c0.03582 0 0.06274-0.02941 0.06516-0.06516l0.1905-2.793z"/><path d="m2.65 7.596c0.0003727-0.00224 0.00167-0.00465 0.00372-0.00726 0.00203-0.00261 0.00446-0.00503 0.00745-0.00726 0.00297-0.00224 0.00614-0.0041 0.0095-0.0054 0.00333-0.0013 0.00651-0.00185 0.0095-0.00185h0.1429c0.00632 0 0.01171 0.00185 0.01619 0.00577 0.00446 0.0039 0.00781 0.00745 0.01005 0.01042l0.01395 0.03182 0.2931 0.7559c0.00299 0.00745 0.00242 0.01339-0.00167 0.01805-0.00408 0.00465-0.01117 0.00707-0.0212 0.00707h-0.16c-0.00856 0-0.01508-0.00167-0.01973-0.00484-0.00466-0.00318-0.00837-0.00838-0.01098-0.01583-0.00745-0.01898-0.0147-0.03795-0.02176-0.05675-0.00709-0.0188-0.01415-0.03759-0.02122-0.05658h-0.296c-0.00707 0.01898-0.01414 0.03778-0.02139 0.05658-0.00726 0.0188-0.01452 0.03776-0.02159 0.05675-0.00484 0.01378-0.01432 0.02066-0.02848 0.02066h-0.165c-0.00707 0-0.01285-0.00187-0.01749-0.00557-0.00465-0.00372-0.00557-0.00931-0.00261-0.01675l0.303-0.785zm0.1016 0.2389c-0.00708 0.01898-0.01415 0.03946-0.02141 0.06141-0.00726 0.02197-0.01451 0.0441-0.02159 0.06644-0.00707 0.02232-0.01414 0.04429-0.02139 0.06606-0.00726 0.02178-0.01451 0.04224-0.02159 0.06122h0.1714zm1.151 0.5588c-0.00484 0.0041-0.00986 0.00669-0.01526 0.00781-0.0054 0.00111-0.01061 0.00167-0.01544 0.00167h-0.08431c-0.00669 0-0.01246-0.0013-0.0173-0.00372-0.00484-0.00241-0.00893-0.00557-0.01229-0.00966-0.00333-0.0041-0.00614-0.00877-0.00837-0.01396-0.00222-0.00521-0.00408-0.01061-0.00557-0.01619l-0.0173-0.07146c-0.00557 0.01154-0.01358 0.02456-0.02419 0.03927-0.01061 0.0147-0.0242 0.02846-0.04058 0.04131-0.01637 0.01283-0.03592 0.02363-0.05861 0.03238-0.02271 0.00875-0.04876 0.01322-0.07816 0.01322-0.04243 0-0.08095-0.00819-0.1156-0.02456-0.03461-0.01639-0.06402-0.03871-0.08839-0.067s-0.04336-0.06141-0.05676-0.09919c-0.01339-0.03776-0.0201-0.07797-0.0201-0.1208v-0.366c0-0.01414 0.00318-0.02493 0.00931-0.03219 0.00615-0.00726 0.01583-0.0108 0.02922-0.0108h0.129c0.016 0 0.02697 0.00261 0.03293 0.00799 0.00595 0.00539 0.00893 0.016 0.00893 0.03164v0.3634c0 0.016 0.00371 0.03107 0.01098 0.04539 0.00726 0.01434 0.01675 0.02698 0.02865 0.03797 0.01192 0.01098 0.02549 0.01973 0.04058 0.02605 0.01507 0.00632 0.03032 0.0095 0.04597 0.0095 0.01339 0 0.02734-0.00318 0.04168-0.0095 0.01432-0.00632 0.02754-0.01488 0.03963-0.02549 0.0121-0.01061 0.02197-0.02307 0.02978-0.03741 0.00781-0.01432 0.01173-0.02939 0.01173-0.04541v-0.363c0-0.00632 0.0013-0.01264 0.00371-0.01898 0.00242-0.00632 0.00596-0.01115 0.0108-0.01451 0.00485-0.00299 0.0095-0.00502 0.01378-0.00614 0.00427-0.00111 0.00911-0.00167 0.0147-0.00167h0.1262c0.016 0 0.02754 0.00391 0.03461 0.01173 0.00707 0.00781 0.01061 0.01824 0.01061 0.03126v0.6247c0 0.00707-0.00149 0.01358-0.00466 0.01953-0.00318 0.00596-0.00762 0.01061-0.0132 0.01396l0.00333-0.00167zm0.6482-0.07704c-0.01005 0.01005-0.02104 0.02083-0.03312 0.03238-0.0121 0.01154-0.02549 0.02234-0.04002 0.03238-0.01451 0.01005-0.03014 0.01824-0.04688 0.02476-0.01676 0.00651-0.0348 0.00986-0.05416 0.00986-0.05063 0-0.09714-0.0095-0.1398-0.02848-0.042-0.02-0.079-0.046-0.11-0.079s-0.055-0.071-0.072-0.116-0.026-0.093-0.026-0.144c0-0.05173 0.00875-0.09994 0.02605-0.1444 0.01731-0.04448 0.04131-0.08317 0.07202-0.1161 0.0307-0.03293 0.06736-0.0588 0.11-0.0776 0.04263-0.0188 0.08914-0.0281 0.1398-0.0281 0.02046 0 0.03926 0.00299 0.05619 0.00893 0.01693 0.00596 0.03239 0.01359 0.04634 0.0229 0.01397 0.00931 0.0268 0.01971 0.03853 0.03144 0.01171 0.01173 0.0227 0.02327 0.03312 0.03442v-0.255c0-0.01192 0.00372-0.02195 0.01098-0.03015 0.00726-0.00819 0.01805-0.01227 0.03256-0.01227h0.1256c0.00484 0 0.01005 0.000932 0.01544 0.00297 0.0054 0.00205 0.01023 0.00503 0.01471 0.00875 0.00446 0.00372 0.00819 0.0082 0.01097 0.01341 0.00279 0.00521 0.0041 0.01098 0.0041 0.0173v0.8346c0 0.02866-0.01507 0.04298-0.04522 0.04298h-0.11c-0.00745 0-0.0132-0.0009322-0.0173-0.00279-0.00408-0.00185-0.00745-0.00465-0.01023-0.00819-0.00278-0.00353-0.00539-0.00799-0.00762-0.01339-0.00222-0.0054-0.00502-0.01154-0.00837-0.01861l-0.01621-0.04355zm-0.321-0.268c0 0.02456 0.00391 0.04746 0.01154 0.06885 0.00762 0.02141 0.01842 0.04002 0.03256 0.05565 0.01415 0.01563 0.03127 0.02792 0.05119 0.03704 0.0199 0.00912 0.04187 0.01376 0.06605 0.01376 0.02382 0 0.04634-0.00427 0.06736-0.01283 0.02104-0.00856 0.03927-0.02048 0.0549-0.03554 0.01564-0.01508 0.02829-0.03276 0.03778-0.05322 0.0095-0.02048 0.0147-0.04244 0.01582-0.06588v-0.008c0-0.02382-0.00446-0.04653-0.01339-0.0681-0.009-0.022-0.021-0.041-0.037-0.057s-0.035-0.029-0.056-0.039c-0.021-0.009-0.045-0.014-0.07-0.014-0.02419 0-0.04615 0.00466-0.06606 0.01414-0.01992 0.0095-0.03704 0.02253-0.05119 0.0389-0.01414 0.01637-0.02493 0.03536-0.03256 0.05695-0.00762 0.02158-0.01154 0.04429-0.01154 0.0681zm0.683-0.311c0-0.01192 0.00333-0.02214 0.01004-0.0307s0.01712-0.01285 0.03127-0.01285h0.1278c0.00448 0 0.00931 0.0009321 0.01452 0.00299 0.00521 0.00203 0.01005 0.00502 0.01451 0.00893 0.00448 0.0039 0.00837 0.00856 0.01154 0.01376 0.00316 0.00523 0.00465 0.01117 0.00465 0.01786v0.6225c0 0.01414-0.0039 0.02475-0.01171 0.032-0.00781 0.00726-0.01898 0.01098-0.03351 0.01098h-0.127c-0.02754 0-0.04131-0.01432-0.04131-0.04298v-0.622zm0-0.2825c0-0.01563 0.00333-0.0268 0.01004-0.03331 0.00671-0.00653 0.01712-0.00968 0.03127-0.00968h0.1295c0.01303 0 0.02364 0.00316 0.03164 0.00968 0.00799 0.00651 0.0119 0.01768 0.0119 0.03331v0.1089c0 0.00446-0.0009321 0.00931-0.00297 0.01451-0.00205 0.00521-0.00503 0.01023-0.00875 0.01507-0.00372 0.00485-0.00819 0.00875-0.01359 0.01192-0.00539 0.00318-0.01154 0.00484-0.01824 0.00484h-0.129c-0.02754 0-0.04131-0.01544-0.04131-0.04632v-0.11zm0.9563 0.8631c-0.03275 0.03014-0.0696 0.0536-0.1105 0.07053-0.04094 0.01693-0.08429 0.02549-0.1301 0.02549-0.05098 0-0.09919-0.00931-0.1446-0.02792-0.045-0.019-0.085-0.045-0.119-0.078s-0.061-0.072-0.081-0.116c-0.021-0.045-0.031-0.094-0.031-0.146 0-0.03275 0.0041-0.06458 0.0121-0.09528 0.00799-0.03071 0.01936-0.05936 0.03405-0.08616 0.01471-0.0268 0.03258-0.05156 0.0536-0.07407 0.02104-0.02251 0.04448-0.04168 0.07053-0.05768 0.02605-0.01602 0.05434-0.02848 0.08487-0.03741 0.03051-0.00893 0.06271-0.01341 0.09658-0.01341 0.03088 0 0.06085 0.0041 0.08988 0.01229 0.02902 0.00819 0.05638 0.01973 0.08187 0.03461s0.04876 0.03275 0.06997 0.0536c0.02122 0.02085 0.03946 0.04354 0.05471 0.06829 0.01527 0.02475 0.02717 0.05117 0.03554 0.07928 0.00837 0.0281 0.01248 0.05714 0.01248 0.0869 0 0.01936-0.0001864 0.03519-0.0007457 0.04746-0.0005592 0.01229-0.00354 0.02197-0.00875 0.02922-0.00523 0.00726-0.01378 0.01227-0.02586 0.01507-0.0121 0.00279-0.02997 0.00429-0.05341 0.00429h-0.401c0.00372 0.02382 0.01136 0.04373 0.02271 0.05973 0.01134 0.016 0.02437 0.02866 0.03926 0.03815 0.0149 0.0095 0.03071 0.01637 0.04746 0.02046 0.01675 0.0041 0.03256 0.00615 0.04744 0.00615 0.01341 0 0.02717-0.00149 0.04132-0.00429 0.01414-0.00279 0.02792-0.00651 0.04112-0.01117 0.01322-0.00465 0.02531-0.01005 0.03629-0.01619s0.01973-0.01246 0.02642-0.01917c0.00595-0.00484 0.01117-0.00856 0.01544-0.01097 0.00429-0.00242 0.00875-0.00354 0.01359-0.00354s0.00986 0.00167 0.01488 0.00502c0.00503 0.00335 0.01061 0.00819 0.01693 0.01452l0.05919 0.06699c0.00408 0.00485 0.00669 0.00912 0.00781 0.01303 0.00111 0.0039 0.00167 0.00799 0.00167 0.01209 0 0.00746-0.00205 0.01378-0.00615 0.01917-0.00408 0.0054-0.00893 0.01023-0.01451 0.01434zm-0.268-0.466c-0.01451 0-0.02848 0.00279-0.04205 0.00856-0.01359 0.00577-0.02642 0.01359-0.03834 0.02326-0.0119 0.00968-0.02251 0.02066-0.032 0.03295-0.0095 0.01227-0.0173 0.02475-0.02327 0.03741h0.286c-0.008-0.014-0.016-0.028-0.025-0.04-0.01-0.012-0.02-0.023-0.032-0.032-0.011-0.01-0.025-0.017-0.04-0.022s-0.033-0.008-0.053-0.008zm0.0095-0.4556c0.00261-0.00185 0.00466-0.00316 0.00614-0.0039 0.00149-0.0007456 0.00354-0.00111 0.00615-0.00111 0.00297 0 0.00669 0.00167 0.01115 0.00502l0.1435 0.1429c0.00299 0.00224 0.00448 0.00653 0.00448 0.01285 0 0.00335-0.00167 0.00688-0.00503 0.01061l-0.04912 0.05024c-0.0041 0.0041-0.00912 0.00614-0.01507 0.00614-0.00485 0-0.00893-0.00166-0.01229-0.00502l-0.0776-0.07928-0.07928 0.07983c-0.0041 0.00408-0.00837 0.00557-0.01303 0.00446-0.00465-0.00111-0.00856-0.00316-0.01154-0.00614l-0.05024-0.04858c-0.00187-0.00185-0.00299-0.0039-0.00354-0.00595-0.0005438-0.00205-0.00109-0.00408-0.00147-0.00632 0-0.00299 0.0005592-0.00541 0.00147-0.00726 0.0009321-0.00187 0.00205-0.00354 0.00354-0.00503l0.1418-0.1435zm0.4729 0.3059c0.00484-0.0041 0.01005-0.00669 0.01544-0.00781 0.00539-0.00111 0.01042-0.00167 0.01526-0.00167h0.08431c0.00669 0 0.01246 0.00111 0.0173 0.00354 0.00484 0.00241 0.00893 0.00577 0.01227 0.00985 0.00335 0.0041 0.00615 0.00877 0.0082 0.01396 0.00203 0.00521 0.0039 0.01061 0.00577 0.01619l0.0173 0.07146c0.00557-0.01154 0.01376-0.02475 0.02437-0.03946 0.01061-0.0147 0.024-0.02846 0.04039-0.04131 0.01637-0.01283 0.03592-0.02363 0.05843-0.03238 0.02253-0.00875 0.04858-0.01303 0.07834-0.01303 0.04243 0 0.08095 0.00819 0.1156 0.02456 0.03461 0.01639 0.0642 0.03871 0.08858 0.067 0.02437 0.02829 0.04317 0.06122 0.05658 0.099 0.01339 0.03778 0.0201 0.07816 0.0201 0.121v0.3657c0 0.01414-0.00299 0.02475-0.00912 0.032-0.00615 0.00726-0.01602 0.01098-0.02941 0.01098h-0.128c-0.016 0-0.02698-0.00279-0.03293-0.00819-0.00595-0.00539-0.00893-0.01582-0.00893-0.03146v-0.363c0-0.016-0.00353-0.03126-0.0108-0.04558-0.00726-0.01434-0.01693-0.02698-0.02883-0.03797-0.01192-0.01098-0.02532-0.01954-0.04039-0.02586s-0.03051-0.0095-0.04615-0.0095c-0.01339 0-0.02698 0.00299-0.04094 0.00893-0.01395 0.00595-0.0268 0.01414-0.03853 0.02475-0.01171 0.01061-0.02158 0.02307-0.02958 0.03741-0.00799 0.01432-0.01266 0.02997-0.01378 0.04671v0.3629c0 0.00632-0.00111 0.01265-0.00353 0.01898-0.00242 0.00632-0.00615 0.01115-0.01098 0.01451-0.00485 0.00299-0.00931 0.00502-0.01359 0.00614-0.00427 0.00111-0.00931 0.00167-0.01488 0.00167h-0.126c-0.016 0-0.02754-0.00391-0.03461-0.01173-0.00707-0.00781-0.01061-0.01824-0.01061-0.03126v-0.625c0-0.00707 0.00167-0.01358 0.00485-0.01953 0.00318-0.00596 0.00745-0.01061 0.01302-0.01397l-0.00333 0.00167zm1.235 0.4812c0.00523-0.00372 0.01023-0.00615 0.0149-0.00708 0.00465-0.0009166 0.00819-0.00129 0.01078-0.00129 0.00634 0 0.0121 0.00129 0.01731 0.0039 0.00523 0.00261 0.01061 0.00819 0.0162 0.01675l0.06251 0.09436c0.00187 0.00297 0.00372 0.00632 0.0054 0.01004 0.00167 0.00372 0.00242 0.00671 0.00242 0.00893 0 0.00856-0.00261 0.01546-0.00799 0.02085-0.0054 0.00539-0.01136 0.01023-0.01768 0.01432-0.03053 0.02122-0.06383 0.03815-0.1001 0.051-0.03629 0.01283-0.07482 0.01936-0.1154 0.01936-0.03349 0-0.0657-0.00429-0.09677-0.01285-0.031-0.008-0.06-0.02-0.087-0.036-0.027-0.015-0.051-0.034-0.074-0.057-0.022-0.022-0.041-0.046-0.057-0.073-0.015-0.028-0.027-0.057-0.036-0.089-0.009-0.031-0.013-0.064-0.013-0.098 0-0.03424 0.00446-0.06717 0.0132-0.09882 0.00875-0.03163 0.02085-0.06104 0.03648-0.08802 0.01564-0.02698 0.03461-0.05154 0.05695-0.0737 0.02232-0.02214 0.0469-0.04094 0.0737-0.05656 0.0268-0.01564 0.05582-0.02773 0.0869-0.03629 0.03107-0.00856 0.06327-0.01285 0.09677-0.01285 0.04056 0 0.07816 0.00541 0.1126 0.01619 0.03442 0.0108 0.06663 0.0268 0.09677 0.04802l-0.00167-0.00167c0.00819 0.00485 0.01471 0.01042 0.01954 0.01693 0.00485 0.00653 0.00726 0.01471 0.00726 0.02439 0 0.00669-0.00222 0.01358-0.00669 0.02065l-0.04968 0.08431c-0.01042 0.01824-0.02308 0.02736-0.03797 0.02736-0.00335 0-0.00745-0.0009321-0.01229-0.00261-0.00484-0.00167-0.01022-0.00448-0.01619-0.00856-0.01637-0.0108-0.03387-0.01973-0.05266-0.02661-0.0188-0.00688-0.03888-0.01023-0.0601-0.01023-0.02344 0-0.04504 0.00466-0.06476 0.01414-0.01973 0.0095-0.03648 0.02253-0.05043 0.0389s-0.02493 0.03536-0.03275 0.05695c-0.00781 0.02158-0.01173 0.04429-0.01173 0.0681 0 0.02456 0.00391 0.04746 0.01173 0.06885 0.00781 0.02141 0.0188 0.04002 0.03275 0.05565s0.0307 0.02792 0.05043 0.03704 0.04132 0.01376 0.06476 0.01376c0.02122 0 0.04112-0.00371 0.05973-0.01117 0.01861-0.00745 0.03629-0.01693 0.05304-0.02846zm0.235-0.446c0-0.01192 0.00333-0.02214 0.01004-0.0307s0.01712-0.01285 0.03127-0.01285h0.1278c0.00448 0 0.00931 0.0009321 0.01452 0.00299 0.00521 0.00203 0.01005 0.00502 0.01451 0.00893 0.00448 0.0039 0.00837 0.00856 0.01154 0.01376 0.00316 0.00523 0.00465 0.01117 0.00465 0.01786v0.6225c0 0.01414-0.0039 0.02475-0.01171 0.032-0.00781 0.00726-0.01898 0.01098-0.03351 0.01098h-0.127c-0.02754 0-0.04131-0.01432-0.04131-0.04298v-0.622zm0-0.2825c0-0.01563 0.00333-0.0268 0.01004-0.03331 0.00671-0.00653 0.01712-0.00968 0.03127-0.00968h0.1295c0.01303 0 0.02364 0.00316 0.03164 0.00968 0.00799 0.00651 0.0119 0.01768 0.0119 0.03331v0.1089c0 0.00446-0.0009321 0.00931-0.00297 0.01451-0.00205 0.00521-0.00503 0.01023-0.00875 0.01507-0.00372 0.00485-0.00819 0.00875-0.01359 0.01192-0.00539 0.00318-0.01154 0.00484-0.01824 0.00484h-0.129c-0.02754 0-0.04131-0.01544-0.04131-0.04632v-0.11zm1.078 0.9066c0 0.00632-0.00111 0.01227-0.00335 0.01805-0.00222 0.00577-0.00595 0.01041-0.01115 0.01376-0.0041 0.0041-0.00893 0.00669-0.01452 0.00781-0.00557 0.00111-0.01041 0.00167-0.01451 0.00167h-0.109c-0.00781 0-0.01414-0.00111-0.01897-0.00318-0.00485-0.00203-0.00875-0.00484-0.01173-0.00856-0.00299-0.00371-0.0054-0.00837-0.00745-0.01376-0.00205-0.0054-0.00429-0.01117-0.00653-0.01749l-0.01619-0.04187c-0.01005 0.01004-0.02102 0.02065-0.03293 0.032-0.01192 0.01136-0.02493 0.02195-0.03927 0.03163-0.01432 0.00968-0.02995 0.01768-0.0467 0.0242-0.01675 0.00651-0.03461 0.00986-0.0536 0.00986-0.03386 0-0.06626-0.00429-0.09733-0.01285-0.03108-0.00856-0.0601-0.02085-0.08709-0.03666-0.02698-0.01582-0.05156-0.0348-0.07351-0.05694-0.02197-0.02215-0.04076-0.04671-0.05658-0.07388s-0.0281-0.05658-0.03666-0.08802c-0.00856-0.03146-0.01283-0.0642-0.01283-0.09844 0-0.05173 0.0095-0.09994 0.02848-0.1444 0.01897-0.04448 0.04485-0.08317 0.0776-0.1161s0.07128-0.0588 0.1156-0.0776c0.04429-0.0188 0.09173-0.0281 0.1424-0.0281 0.02307 0 0.04429 0.00335 0.06365 0.01023 0.01934 0.00688 0.03702 0.016 0.05285 0.02717 0.01582 0.01117 0.03014 0.02382 0.04298 0.03797 0.01283 0.01414 0.02419 0.02848 0.03424 0.04298l0.02176-0.06755c0.00372-0.00931 0.0069-0.01695 0.00931-0.02271 0.00242-0.00577 0.00503-0.01005 0.00783-0.01283 0.00278-0.00279 0.00614-0.00466 0.01022-0.00559 0.0041-0.0009321 0.00986-0.0013 0.0173-0.0013h0.08319c0.0041 0 0.00893 0.0005594 0.01451 0.00167 0.00559 0.00111 0.01042 0.00372 0.01452 0.00781 0.00521 0.0041 0.00893 0.00875 0.01115 0.01396 0.00224 0.00521 0.00335 0.01115 0.00335 0.01786v0.629zm-0.549-0.314c0 0.02456 0.00391 0.04746 0.01154 0.06885 0.00762 0.02141 0.01842 0.04002 0.03256 0.05565 0.01415 0.01563 0.03127 0.02792 0.05117 0.03704 0.01992 0.00912 0.04188 0.01376 0.06607 0.01376 0.02493 0 0.0482-0.00465 0.0696-0.01376 0.021-0.009 0.04-0.021 0.055-0.036 0.016-0.016 0.029-0.035 0.037-0.056 0.009-0.021 0.014-0.044 0.014-0.069 0-0.024-0.005-0.046-0.014-0.068-0.008-0.022-0.021-0.041-0.037-0.057-0.015-0.016-0.034-0.029-0.055-0.039-0.022-0.009-0.045-0.014-0.07-0.014-0.02419 0-0.04615 0.00466-0.06607 0.01414-0.0199 0.0095-0.03702 0.02253-0.05117 0.0389-0.014 0.016-0.025 0.035-0.033 0.057-0.007 0.022-0.011 0.044-0.011 0.068zm0.79 0.1334c0.01005 0.01005 0.02104 0.01842 0.03276 0.02531 0.01171 0.00688 0.02288 0.01248 0.03368 0.01675 0.0108 0.00429 0.02029 0.00745 0.02848 0.00931 0.00819 0.00187 0.01376 0.00279 0.01675 0.00279 0.00707 0 0.01619-0.0003728 0.02717-0.0009321 0.01098-0.0005592 0.02139-0.00224 0.03144-0.00503 0.01005-0.00278 0.0188-0.00726 0.02605-0.01358 0.00726-0.00632 0.0108-0.01526 0.0108-0.0268 0-0.01042-0.00205-0.0188-0.00614-0.02493-0.0041-0.00614-0.01005-0.01136-0.01786-0.01563-0.00781-0.00429-0.0173-0.00801-0.02866-0.01136s-0.02419-0.00726-0.03834-0.01173c-0.04466-0.0119-0.0815-0.02624-0.1105-0.04298-0.02904-0.01675-0.05192-0.03554-0.06885-0.0562-0.01693-0.02065-0.02885-0.0428-0.03554-0.06661-0.00671-0.02382-0.01005-0.04895-0.01005-0.07538 0-0.03088 0.00614-0.05899 0.01842-0.08429 0.01227-0.02531 0.02976-0.04709 0.05248-0.06514 0.0227-0.01805 0.04987-0.032 0.08151-0.04187 0.03163-0.00986 0.0668-0.0147 0.1055-0.0147 0.02344 0 0.04541 0.00185 0.06587 0.00577 0.02048 0.00391 0.04002 0.01005 0.05863 0.01842s0.03683 0.01917 0.05451 0.03238c0.01768 0.01322 0.03517 0.02904 0.05268 0.04727 0.00632 0.00745 0.00966 0.01432 0.00985 0.02085 0.0001865 0.00651-0.00408 0.01358-0.01264 0.02102-0.01452 0.01192-0.02829 0.02364-0.04149 0.03517-0.01322 0.01154-0.02698 0.02437-0.04114 0.03853-0.00446 0.00371-0.00893 0.00595-0.01339 0.00688-0.00448 0.000932-0.00875 0.000932-0.01285-0.0001864-0.00408-0.00111-0.00799-0.00299-0.01173-0.00557-0.00371-0.00261-0.00707-0.00578-0.01004-0.0095-0.01303-0.01452-0.02792-0.02437-0.04466-0.02941-0.01676-0.00502-0.03239-0.00745-0.0469-0.00745-0.01824 0-0.03275 0.00318-0.04354 0.0095-0.0108 0.00632-0.01582 0.016-0.01507 0.02904 0.0007302 0.00968 0.00446 0.01712 0.01097 0.02251 0.00653 0.00539 0.01452 0.00986 0.02402 0.01322 0.00948 0.00333 0.01953 0.00595 0.03014 0.00799 0.01061 0.00203 0.02029 0.00446 0.02922 0.00707 0.03349 0.0108 0.0642 0.02251 0.09211 0.03517 0.02792 0.01266 0.05212 0.0281 0.07258 0.04653 0.02048 0.01842 0.03648 0.04056 0.04783 0.06624 0.01136 0.02568 0.01693 0.05695 0.01693 0.0938 0 0.03683-0.00726 0.06978-0.02197 0.0988-0.0147 0.02904-0.03498 0.05341-0.06066 0.07314s-0.056 0.0348-0.09118 0.04522c-0.03517 0.01042-0.07314 0.01563-0.1137 0.01563-0.02307 0-0.04651-0.00203-0.07034-0.00614-0.02382-0.00408-0.04688-0.0108-0.06922-0.01992-0.02232-0.00912-0.04354-0.02083-0.06365-0.03517-0.02009-0.01432-0.03795-0.03163-0.0536-0.0521-0.00408-0.00521-0.00707-0.0108-0.00912-0.01656-0.00203-0.00577-0.00297-0.01136-0.00278-0.01693 0.0001863-0.00557 0.0013-0.0108 0.00333-0.01544 0.00205-0.00466 0.00523-0.00856 0.00968-0.01192l0.07202-0.07202c0.00893-0.00745 0.01693-0.01005 0.02382-0.00781 0.0069 0.00224 0.01564 0.00856 0.02642 0.01898z" fill-rule="nonzero" class="fil6" stroke-width="1.026" fill="#fff"/><g aria-label="Interativas" transform="matrix(.9951 0 0 .9970 .004616 .03877)" stroke-width=".03360px" fill="#f8c300"><path d="m1.173 8.847q0-0.0121 0.00739-0.02083 0.00739-0.00874 0.02217-0.00874h0.1975q0.01008 0 0.0215 0.00806t0.01142 0.0215v0.9387q0 0.02956-0.03292 0.02956h-0.198q-0.02956 0-0.02956-0.02956z"/><path d="m1.64 8.973q0.00874-0.00739 0.01814-0.00941 0.01008-0.00202 0.01881-0.00202h0.1015q0.0121 0 0.02083 0.0047 0.00874 0.00403 0.01478 0.01142 0.00605 0.00739 0.00941 0.0168 0.00403 0.00941 0.00739 0.01949l0.02083 0.08601q0.01008-0.02083 0.02889-0.04704 0.01949-0.02688 0.04905-0.04972 0.02956-0.02352 0.06988-0.03897 0.04099-0.01613 0.09474-0.01613 0.0766 0 0.1391 0.02956 0.06249 0.02956 0.1062 0.08063 0.04435 0.05107 0.06854 0.1196 0.02419 0.06787 0.02419 0.1451v0.4401q0 0.02553-0.01142 0.03897-0.01075 0.01277-0.03494 0.01277h-0.1552q-0.02889 0-0.03964-0.00941-0.01075-0.01008-0.01075-0.0383v-0.437q0-0.02889-0.01344-0.05443-0.01277-0.02621-0.03427-0.04569-0.0215-0.02016-0.04905-0.03158-0.02688-0.01142-0.0551-0.01142-0.02419 0-0.04972 0.01075-0.02486 0.01075-0.04636 0.03024-0.02083 0.01881-0.03561 0.04502-0.01411 0.02553-0.01613 0.05577v0.436q0 0.01142-0.0047 0.02285-0.00403 0.01142-0.01277 0.01747-0.00874 0.00538-0.0168 0.00739-0.00739 0.00202-0.01747 0.00202h-0.152q-0.02889 0-0.04166-0.01411-0.012-0.014-0.012-0.038v-0.752q0-0.01277 0.00538-0.02352 0.00605-0.01075 0.01613-0.0168z"/><path d="m2.646 8.828q0-0.02083 0.01344-0.03091 0.01411-0.01075 0.03964-0.02016l0.1525-0.05308q0.00336-0.0006719 0.00605-0.0006719 0.00336 0 0.00605 0 0.02486 0 0.03292 0.01478 0.00874 0.01411 0.00874 0.03763l-0.000672 0.2117h0.1122q0.0215 0 0.03494 0.01277t0.01344 0.0383v0.1297q0 0.02822-0.01344 0.04166-0.01344 0.01277-0.03494 0.01277h-0.113l0.000672 0.5402q0 0.02553-0.01478 0.03897-0.01478 0.01277-0.04099 0.01277h-0.151q-0.05174 0-0.05174-0.05174l-0.000672-0.5402h-0.04905q-0.05174 0-0.05174-0.05443v-0.13q0-0.05107 0.05174-0.05107h0.04905z"/><path d="m3.865 9.713q-0.05913 0.05443-0.133 0.08534-0.07391 0.03024-0.1566 0.03024-0.09206 0-0.174-0.0336-0.081-0.034-0.143-0.093-0.062-0.06-0.098-0.141-0.036-0.08-0.036-0.175 0-0.05913 0.01411-0.1142 0.01478-0.05577 0.04099-0.1042 0.02688-0.04838 0.06451-0.0887 0.0383-0.04099 0.08534-0.06988t0.1021-0.04502q0.0551-0.01613 0.1162-0.01613 0.05577 0 0.1082 0.01478 0.05241 0.01478 0.0981 0.04166 0.04636 0.02688 0.08466 0.06451t0.06585 0.08265q0.02755 0.04435 0.04233 0.09542 0.01545 0.0504 0.01545 0.1042 0 0.03494-0.00134 0.05712-0.000672 0.02217-0.01008 0.03561-0.00941 0.01277-0.03158 0.01814-0.0215 0.0047-0.06383 0.0047h-0.484q0.00672 0.043 0.02688 0.0719 0.02083 0.02889 0.04771 0.04636 0.02688 0.0168 0.05712 0.02419t0.05712 0.00739q0.02419 0 0.04972-0.0047 0.02553-0.00538 0.04905-0.01344 0.02419-0.00874 0.04368-0.01949 0.02016-0.01142 0.03225-0.02352 0.01075-0.00874 0.01814-0.01277 0.00806-0.0047 0.0168-0.0047t0.01747 0.00605q0.00941 0.00605 0.02083 0.01747l0.07122 0.08063q0.00739 0.00874 0.00941 0.01613 0.00202 0.00672 0.00202 0.01411 0 0.01344-0.00739 0.02352-0.00739 0.00941-0.01747 0.0168zm-0.323-0.56q-0.02621 0-0.05107 0.01075-0.02419 0.01008-0.04569 0.02755t-0.03897 0.03964q-0.0168 0.02217-0.02755 0.04502h0.3434q-0.01411-0.0262-0.03091-0.04838-0.01613-0.02217-0.03763-0.03897-0.02083-0.0168-0.04838-0.0262-0.02688-0.00941-0.06316-0.00941z"/><path d="m4.103 9.011q0-0.01142 0.0047-0.0215 0.00538-0.01075 0.01277-0.0168 0.01747-0.01142 0.03628-0.01142h0.1015q0.01277 0 0.02016 0.0047t0.0121 0.0121q0.00538 0.00739 0.00874 0.0168 0.00403 0.00941 0.00941 0.01881 0.00134 0.00269 0.00538 0.01344 0.00403 0.01008 0.00874 0.02285 0.0047 0.0121 0.00874 0.02352 0.0047 0.01075 0.00605 0.01411 0.02016-0.02217 0.0383-0.04636 0.01881-0.02486 0.03964-0.04569t0.04636-0.03427 0.06047-0.01344q0.03628 0 0.06451 0.00538 0.02889 0.00538 0.05443 0.01613 0.02553 0.01008 0.0504 0.02621 0.02553 0.01613 0.0551 0.03763 0.04636 0.02486 0.01747 0.07391l-0.06115 0.1042q-0.01344 0.02016-0.03292 0.02486-0.01949 0.0047-0.04233-0.00605-0.02889-0.02822-0.05913-0.04166-0.02956-0.01411-0.06787-0.01411-0.02621 0-0.04636 0.00739-0.01949 0.00739-0.03561 0.02083-0.01613 0.01344-0.03024 0.03225t-0.02822 0.04166v0.4865q0 0.02553-0.01277 0.03897-0.0121 0.01277-0.04099 0.01277h-0.15q-0.05241 0-0.05241-0.05174z"/><path d="m5.691 9.765q0 0.01142-0.00403 0.02217-0.00403 0.01008-0.01344 0.01613-0.00739 0.00739-0.01747 0.00941t-0.01747 0.00202h-0.132q-0.01411 0-0.02285-0.00336-0.00874-0.00403-0.01411-0.01075-0.00538-0.00672-0.00941-0.01613-0.00336-0.01008-0.00739-0.0215l-0.02-0.05q-0.01814 0.01814-0.03964 0.03897-0.0215 0.02016-0.04771 0.03763-0.02553 0.01747-0.05577 0.02889-0.03024 0.0121-0.06451 0.0121-0.06115 0-0.1176-0.01546-0.05577-0.01546-0.1048-0.04368-0.04838-0.02889-0.08802-0.06854-0.03964-0.04032-0.06854-0.08937-0.02822-0.04905-0.04368-0.1055-0.01545-0.05712-0.01545-0.1189 0-0.0934 0.03427-0.1734 0.03427-0.08063 0.0934-0.1398 0.05913-0.0598 0.1391-0.0934 0.07996-0.03427 0.1713-0.03427 0.04166 0 0.0766 0.01277 0.03494 0.0121 0.06316 0.03225 0.02889 0.02016 0.05174 0.04569 0.02352 0.02553 0.04166 0.05174l0.0262-0.0813q0.00672-0.0168 0.01075-0.02688 0.0047-0.01075 0.00941-0.01546 0.00538-0.00538 0.01277-0.00672 0.00739-0.00202 0.02083-0.00202h0.1001q0.00739 0 0.01747 0.00202t0.01747 0.00941q0.00941 0.00739 0.01344 0.0168t0.00403 0.0215zm-0.661-0.376q0 0.04435 0.01344 0.08332 0.01411 0.0383 0.03964 0.06652t0.06115 0.04502q0.03628 0.01613 0.07996 0.01613 0.04502 0 0.08332-0.01613 0.03897-0.0168 0.06719-0.04502 0.02889-0.02822 0.04502-0.06652 0.01613-0.03897 0.01613-0.08332 0-0.043-0.01613-0.08198-0.01613-0.03897-0.04502-0.06854-0.02822-0.02956-0.06719-0.04636-0.0383-0.01747-0.08332-0.01747-0.04368 0-0.07996 0.01747-0.03561 0.0168-0.06115 0.04636-0.02553 0.02956-0.03964 0.06854-0.01344 0.03897-0.01344 0.08198z"/><path d="m5.906 8.828q0-0.02083 0.01344-0.03091 0.01411-0.01075 0.03964-0.02016l0.1525-0.05308q0.00336-0.0006719 0.00605-0.0006719 0.00336 0 0.00605 0 0.02486 0 0.03292 0.01478 0.00874 0.01411 0.00874 0.03763l-0.0006719 0.2117h0.112q0.0215 0 0.03494 0.01277t0.01344 0.0383v0.1297q0 0.02822-0.01344 0.04166-0.01344 0.01277-0.03494 0.01277h-0.113l0.0006719 0.5402q0 0.02553-0.01478 0.03897-0.01478 0.01277-0.04099 0.01277h-0.152q-0.05174 0-0.05174-0.05174v-0.54h-0.049q-0.05174 0-0.05174-0.05443v-0.13q0-0.05107 0.05174-0.05107h0.04905z"/><path d="m6.431 9.014q0-0.0215 0.0121-0.03696t0.03763-0.01546h0.1539q0.00806 0 0.01747 0.00403 0.00941 0.00336 0.01747 0.01075 0.00806 0.00672 0.01344 0.01613 0.00605 0.00941 0.00605 0.0215v0.7492q0 0.02553-0.01411 0.03897-0.01411 0.01277-0.04032 0.01277h-0.155q-0.04972 0-0.04972-0.05174zm0-0.34q0-0.02822 0.0121-0.03964 0.0121-0.0121 0.03763-0.0121h0.155q0.02352 0 0.03763 0.0121 0.01478 0.01142 0.01478 0.03964v0.131q0 0.00806-0.00403 0.01747-0.00336 0.00941-0.01008 0.01814-0.00672 0.00874-0.0168 0.01478-0.00941 0.00538-0.0215 0.00538h-0.156q-0.04972 0-0.04972-0.05577z"/><path d="m6.792 9.028q-0.01344-0.02755-0.00538-0.04704 0.00874-0.01949 0.04032-0.01949h0.172q0.01747 0 0.03024 0.00941 0.01344 0.00941 0.01881 0.02688 0.01142 0.03561 0.02486 0.07996 0.01411 0.04435 0.02889 0.09138 0.01546 0.04636 0.03024 0.09273 0.01478 0.04569 0.02688 0.08466 0.01277 0.0383 0.02217 0.06719 0.01008 0.02822 0.01478 0.04032l0.142-0.456q0.00874-0.0215 0.01949-0.02889 0.01142-0.00739 0.03158-0.00739h0.1767q0.01949 0 0.02956 0.0047 0.01008 0.0047 0.01344 0.01277 0.00336 0.00806 0.00134 0.01881-0.00202 0.01008-0.00672 0.0215l-0.3198 0.7667q-0.00739 0.0121-0.01747 0.02083-0.01008 0.00806-0.03024 0.00806h-0.07996q-0.02688 0-0.0383-0.00739-0.01075-0.00806-0.01613-0.0215z"/><path d="m8.538 9.765q0 0.01142-0.00403 0.02217-0.00403 0.01008-0.01344 0.01613-0.00739 0.00739-0.01747 0.00941t-0.01747 0.00202h-0.133q-0.01411 0-0.02285-0.00336-0.00874-0.00403-0.01411-0.01075-0.00538-0.00672-0.00941-0.01613-0.00336-0.01008-0.00739-0.0215l-0.01949-0.0504q-0.01814 0.01814-0.03964 0.03897-0.0215 0.02016-0.04771 0.03763-0.02553 0.01747-0.05577 0.02889-0.03024 0.0121-0.06451 0.0121-0.06115 0-0.1176-0.01546-0.05577-0.01546-0.1048-0.04368-0.04838-0.02889-0.08802-0.06854-0.03964-0.04032-0.06854-0.08937-0.02822-0.04905-0.04368-0.1055-0.01545-0.05712-0.01545-0.1189 0-0.0934 0.03427-0.1734 0.03427-0.08063 0.0934-0.1398 0.05913-0.0598 0.1391-0.0934 0.07996-0.03427 0.1713-0.03427 0.04166 0 0.0766 0.01277 0.03494 0.0121 0.06316 0.03225 0.02889 0.02016 0.05174 0.04569 0.02352 0.02553 0.04166 0.05174l0.0262-0.0813q0.00672-0.0168 0.01075-0.02688 0.0047-0.01075 0.00941-0.01546 0.00538-0.00538 0.01277-0.00672 0.00739-0.00202 0.02083-0.00202h0.1001q0.00739 0 0.01747 0.00202t0.01747 0.00941q0.00941 0.00739 0.01344 0.0168t0.00403 0.0215zm-0.662-0.376q0 0.04435 0.01344 0.08332 0.01411 0.0383 0.03964 0.06652t0.06115 0.04502q0.03628 0.01613 0.07996 0.01613 0.04502 0 0.08332-0.01613 0.03897-0.0168 0.06719-0.04502 0.02889-0.02822 0.04502-0.06652 0.01613-0.03897 0.01613-0.08332 0-0.043-0.01613-0.08198-0.01613-0.03897-0.04502-0.06854-0.02822-0.02956-0.06719-0.04636-0.0383-0.01747-0.08332-0.01747-0.04368 0-0.07996 0.01747-0.03561 0.0168-0.06115 0.04636-0.02553 0.02956-0.03964 0.06854-0.01344 0.03897-0.01344 0.08198z"/><path d="m8.827 9.549q0.01814 0.01814 0.03897 0.03091 0.0215 0.0121 0.04099 0.02016 0.01949 0.00739 0.03427 0.01075t0.02016 0.00336q0.01277 0 0.03225-0.0006719 0.02016-0.00134 0.0383-0.00605 0.01814-0.00538 0.03091-0.0168 0.01344-0.01142 0.01344-0.03225 0-0.01881-0.00739-0.02956-0.00739-0.01142-0.0215-0.01881-0.01411-0.00806-0.03494-0.01411-0.02016-0.00605-0.04569-0.01411-0.08063-0.0215-0.133-0.05174-0.05241-0.03024-0.08332-0.06719-0.03024-0.03763-0.04233-0.08063-0.0121-0.043-0.0121-0.09071 0-0.05577 0.02217-0.1015 0.02217-0.04569 0.06316-0.07794 0.04099-0.03292 0.0981-0.0504 0.05712-0.01814 0.127-0.01814 0.04233 0 0.07929 0.00739 0.03696 0.00672 0.07055 0.02217 0.0336 0.01478 0.06518 0.03897 0.03225 0.02352 0.06383 0.05644 0.01142 0.01344 0.01142 0.02553 0.0006719 0.01142-0.01478 0.02486-0.02621 0.0215-0.0504 0.04233-0.02352 0.02083-0.04905 0.04636-0.00806 0.00672-0.01613 0.00874-0.00806 0.00134-0.01546-0.000672-0.00739-0.00202-0.01411-0.00672t-0.0121-0.01142q-0.02352-0.0262-0.05376-0.03494-0.03024-0.00941-0.05644-0.00941-0.03292 0-0.05241 0.01142t-0.01814 0.03494q0.00134 0.01747 0.01277 0.02755 0.0121 0.00941 0.02889 0.01546 0.01747 0.00605 0.03628 0.01008 0.01949 0.00336 0.03561 0.00806 0.06047 0.01949 0.1109 0.04233 0.0504 0.02285 0.08735 0.05644 0.03696 0.03292 0.05712 0.07929 0.02083 0.04636 0.02083 0.1129 0 0.06652-0.02688 0.1189-0.0262 0.05241-0.07257 0.08802-0.04636 0.03561-0.1102 0.05443-0.06316 0.01881-0.1364 0.01881-0.04166 0-0.08466-0.00739t-0.08332-0.02352q-0.04032-0.0168-0.0766-0.04233-0.03628-0.02621-0.06451-0.06316-0.00739-0.00941-0.01142-0.01949-0.00336-0.01075-0.00336-0.02083 0.0006719-0.01008 0.00403-0.01814 0.00403-0.00874 0.0121-0.01478l0.08668-0.08668q0.01613-0.01344 0.02822-0.00941 0.01277 0.00403 0.03225 0.02285z"/></g></g></svg>
